<svg width="22.7765" height="40" viewBox="0 0 22.7765 40" fill="none" xmlns="http://www.w3.org/2000/svg">
<path d="M18.2055 23.2093C20.939 21.6249 22.7765 18.6662 22.7765 15.2771V11.3895C22.7765 5.09998 17.6791 0 11.3895 0C5.09998 0 0 5.09998 0 11.3895V15.5556H6.94255V15.8264C6.09972 16.0364 5.30246 16.3629 4.571 16.7907C1.83751 18.3751 0 21.3338 0 24.7229V28.6105C0 34.9 5.09744 40 11.387 40C17.6765 40 22.7765 34.9 22.7765 28.6105V24.4444H15.834V24.1736C16.6768 23.9636 17.4741 23.6371 18.2055 23.2093ZM13.6117 30C13.6117 31.2275 12.6171 32.2222 11.3895 32.2222C10.162 32.2222 9.1673 31.2275 9.1673 30V10C9.1673 8.77246 10.162 7.77778 11.3895 7.77778C12.6171 7.77778 13.6117 8.77246 13.6117 10V30Z" fill="#F2F2F2"/>
</svg>
