<svg width="151.77" height="40" viewBox="0 0 151.77 40" fill="none" xmlns="http://www.w3.org/2000/svg">
<!-- Emblem -->
<path d="M18.2055 23.2093C20.939 21.6249 22.7765 18.6662 22.7765 15.2771V11.3895C22.7765 5.09998 17.6791 0 11.3895 0C5.09998 0 0 5.09998 0 11.3895V15.5556H6.94255V15.8264C6.09972 16.0364 5.30246 16.3629 4.571 16.7907C1.83751 18.3751 0 21.3338 0 24.7229V28.6105C0 34.9 5.09744 40 11.387 40C17.6765 40 22.7765 34.9 22.7765 28.6105V24.4444H15.834V24.1736C16.6768 23.9636 17.4741 23.6371 18.2055 23.2093ZM13.6117 30C13.6117 31.2275 12.6171 32.2222 11.3895 32.2222C10.162 32.2222 9.1673 31.2275 9.1673 30V10C9.1673 8.77246 10.162 7.77778 11.3895 7.77778C12.6171 7.77778 13.6117 8.77246 13.6117 10V30Z" fill="#F2F2F2"/>
<!-- Text "LayerZero." -->
<g transform="translate(33.33 11.39)">
<path d="M3.37434 0H0V17.2118H9.90433V13.9668H3.37484L3.37434 0Z" fill="#F2F2F2"/>
<path d="M20.7111 6.37C20.235 5.77522 19.6256 5.30242 18.9326 4.9906C18.2396 4.67853 17.4831 4.53629 16.7248 4.57501C15.9326 4.56869 15.1482 4.73346 14.4246 5.05818C13.701 5.38291 13.0551 5.85975 12.5307 6.45682C11.4044 7.72561 10.782 9.36671 10.782 11.0673C10.782 12.7679 11.4044 14.409 12.5307 15.6778C13.0553 16.2746 13.7012 16.7512 14.4249 17.0756C15.1485 17.4001 15.9326 17.5649 16.7248 17.5586C18.4368 17.5586 19.7655 16.9602 20.7111 15.7636V17.2146H23.866V4.9205H20.7111V6.37ZM19.7455 13.5626C19.4274 13.8828 19.0472 14.1341 18.6286 14.3012C18.21 14.4682 17.762 14.5472 17.312 14.5338C16.8637 14.5482 16.417 14.4695 16.0004 14.3024C15.5838 14.1354 15.2059 13.8835 14.8903 13.5629C14.2763 12.8782 13.9364 11.9888 13.9364 11.0668C13.9364 10.1447 14.2763 9.2556 14.8903 8.57071C15.2059 8.25029 15.5838 7.99871 16.0004 7.83166C16.417 7.66461 16.8635 7.58565 17.3117 7.60007C17.7617 7.58666 18.2097 7.66588 18.6281 7.83292C19.0465 7.99997 19.4266 8.25105 19.745 8.57097C20.3661 9.25231 20.7106 10.1427 20.7106 11.067C20.7106 11.9914 20.3661 12.8818 19.745 13.5631L19.7455 13.5626Z" fill="#F2F2F2"/>
<path d="M31.9943 13.1825L28.8048 4.91927H25.3565L30.3684 16.8206C30.1586 17.5308 29.746 18.1635 29.1821 18.6401C28.5896 19.0443 27.8784 19.2351 27.1642 19.1815V22.1326C28.5567 22.2622 29.9488 21.8818 31.0847 21.062C32.1338 20.2658 32.9769 18.9901 33.6132 17.2349L38.0713 4.92054H34.6962L31.9943 13.183V13.1825Z" fill="#F2F2F2"/>
<path d="M44.8985 4.57276C44.0384 4.54239 43.1817 4.69172 42.3814 5.01139C41.5818 5.33105 40.857 5.81397 40.2526 6.42976C39.0847 7.69147 38.4381 9.35206 38.4421 11.0754C38.4469 12.7988 39.1025 14.4561 40.2763 15.7117C41.4993 16.9408 43.1214 17.5556 45.1432 17.5558C47.4902 17.5558 49.2672 16.6791 50.4745 14.9253L47.9309 13.4495C47.6077 13.8621 47.1895 14.1896 46.7119 14.4037C46.2351 14.6178 45.7135 14.7122 45.1916 14.6788C43.3163 14.6788 42.167 13.9084 41.7436 12.368H50.9635C51.042 11.9377 51.083 11.5014 51.0855 11.064C51.1318 9.35156 50.5036 7.68995 49.3373 6.44141C48.7719 5.83017 48.0837 5.34751 47.3184 5.02506C46.553 4.70286 45.7279 4.54872 44.8985 4.57276ZM41.6952 9.90863C41.8344 9.18628 42.2245 8.53708 42.7947 8.07618C43.4019 7.62516 44.144 7.39534 44.8977 7.4247C45.5874 7.41559 46.2612 7.63149 46.8185 8.03974C47.4105 8.49861 47.8081 9.16603 47.9311 9.90787L41.6952 9.90863Z" fill="#F2F2F2"/>
<path d="M56.4417 7.03139V4.91623H53.2871V17.2106H56.4417V11.3341C56.4417 10.1539 56.8208 9.30955 57.5789 8.80107C58.3382 8.29284 59.2562 8.08277 60.1592 8.21109V4.67123C59.3665 4.6611 58.585 4.86485 57.8968 5.26146C57.2175 5.65781 56.7009 6.28575 56.4417 7.03139Z" fill="#F2F2F2"/>
<path d="M75.5402 2.6621V0.000247168H64.319V3.24626H71.2648L64.1382 14.5016V17.2118H75.6766V13.9668H68.4129L75.5402 2.6621Z" fill="#F2F2F2"/>
<path d="M83.1241 4.57276C82.264 4.54239 81.4065 4.69172 80.607 5.01139C79.8069 5.33105 79.0818 5.81397 78.4774 6.42976C77.3096 7.69147 76.6629 9.35231 76.6672 11.0757C76.672 12.799 77.3276 14.4563 78.5022 15.7117C79.7252 16.9408 81.3473 17.5556 83.3683 17.5558C85.7153 17.5558 87.4923 16.6791 88.6996 14.9253L86.156 13.4495C85.8328 13.8621 85.4146 14.1896 84.9378 14.4037C84.4605 14.6178 83.9393 14.7122 83.4174 14.6788C81.5422 14.6788 80.3929 13.9084 79.9694 12.368H89.1894C89.2678 11.9377 89.3088 11.5014 89.3114 11.064C89.3577 9.35156 88.7295 7.68995 87.5632 6.44141C86.9978 5.83017 86.3096 5.34751 85.5442 5.02506C84.7789 4.70286 83.9535 4.54872 83.1241 4.57276ZM79.9203 9.90863C80.06 9.18603 80.4503 8.53682 81.0213 8.07618C81.6285 7.6249 82.3698 7.39509 83.1243 7.4247C83.814 7.41534 84.4873 7.63123 85.0444 8.03974C85.6371 8.49835 86.034 9.16603 86.1562 9.90787L79.9203 9.90863Z" fill="#F2F2F2"/>
<path d="M94.6668 7.03139V4.91623H91.5121V17.2106H94.6668V11.3341C94.6668 10.1539 95.0459 9.30954 95.804 8.80107C96.5633 8.29284 97.4813 8.08277 98.3843 8.21109V4.67123C97.5911 4.6611 96.81 4.8651 96.1219 5.26145C95.4425 5.65781 94.9262 6.28575 94.667 7.03139H94.6668Z" fill="#F2F2F2"/>
<path d="M105.577 4.57044C104.097 4.58689 102.668 5.1179 101.533 6.07335C100.398 7.02881 99.6262 8.34974 99.3498 9.81215C99.0736 11.2743 99.3088 12.7876 100.017 14.0951C100.724 15.4024 101.86 16.4234 103.231 16.9845C104.602 17.5456 106.124 17.6122 107.539 17.1733C108.953 16.7342 110.173 15.8165 110.991 14.5758C111.808 13.3351 112.174 11.8483 112.025 10.3675C111.877 8.88656 111.222 7.50312 110.174 6.45199C109.577 5.83848 108.86 5.3548 108.07 5.03134C107.279 4.70762 106.43 4.5507 105.577 4.57044ZM107.949 13.4963C107.639 13.8104 107.269 14.0572 106.861 14.2219C106.453 14.3867 106.016 14.4657 105.577 14.454C105.139 14.4667 104.703 14.388 104.296 14.2232C103.89 14.0584 103.522 13.8109 103.216 13.4963C102.61 12.8316 102.274 11.963 102.274 11.0617C102.274 10.1604 102.61 9.29203 103.216 8.62739C103.522 8.31279 103.89 8.06551 104.296 7.90048C104.703 7.73572 105.139 7.657 105.577 7.6694C106.016 7.65776 106.453 7.73698 106.861 7.9015C107.269 8.06627 107.639 8.31304 107.949 8.62714C108.562 9.28773 108.903 10.1579 108.903 11.0615C108.903 11.965 108.562 12.8354 107.949 13.4963Z" fill="#F2F2F2"/>
<path d="M118.441 13.6143H114.834V17.2222H118.441V13.6143Z" fill="#F2F2F2"/>
</g>
</svg>
